<svg xmlns="http://www.w3.org/2000/svg" xmlns:xlink="http://www.w3.org/1999/xlink" width="500" zoomAndPan="magnify" viewBox="0 0 375 374.999991" height="500" preserveAspectRatio="xMidYMid meet" version="1.0"><defs><clipPath id="88bbfc27c6"><path d="M 108.347656 113 L 232 113 L 232 254.417969 L 108.347656 254.417969 Z M 108.347656 113 " clip-rule="nonzero"/></clipPath></defs><rect x="-37.5" width="450" fill="#ffffff" y="-37.499999" height="449.999989" fill-opacity="1"/><rect x="-37.5" width="450" fill="#ffffff" y="-37.499999" height="449.999989" fill-opacity="1"/><rect x="-37.5" width="450" fill="#ffffff" y="-37.499999" height="449.999989" fill-opacity="1"/><path fill="#212529" d="M 138.507812 123.738281 C 139.113281 125.425781 139.464844 127.199219 139.554688 129.054688 C 139.695312 132.054688 139.09375 134.449219 138.785156 135.445312 C 137.394531 136.542969 136.105469 137.621094 134.917969 138.679688 C 134.40625 134.746094 132.308594 128.183594 124.257812 124.3125 C 124.257812 124.3125 129.492188 122.769531 138.507812 123.738281 " fill-opacity="1" fill-rule="nonzero"/><g clip-path="url(#88bbfc27c6)"><path fill="#212529" d="M 227.976562 145.925781 C 213.371094 104.410156 162.933594 124.445312 162.933594 124.445312 C 146.339844 113.800781 134.160156 113.960938 134.160156 113.960938 C 145.660156 124.078125 140.597656 136.738281 140.597656 136.738281 C 117.917969 154.328125 129.96875 161.101562 129.96875 161.101562 C 129.96875 161.101562 126.417969 157.105469 141.421875 150.457031 C 141.421875 150.457031 140.378906 153.355469 138.148438 156.652344 C 135.375 160.75 131.628906 161.453125 129.046875 162.566406 C 126.757812 166.035156 120.128906 175.125 108.367188 184 C 108.367188 184 120.804688 191.410156 128.773438 186.007812 C 170.683594 157.59375 178.542969 175.09375 159.953125 187.253906 C 125.589844 209.730469 138.675781 254.410156 138.675781 254.410156 C 146.089844 210.824219 188.429688 202.644531 188.429688 202.644531 C 192.300781 210.394531 186.390625 222.769531 186.390625 222.769531 C 200.253906 212.117188 206.054688 192.097656 206.054688 192.097656 C 210.570312 198.878906 208.207031 214.054688 208.207031 214.054688 C 226.042969 187.363281 217.984375 159.808594 217.984375 159.808594 C 227.117188 174.664062 224.433594 185.640625 224.433594 185.640625 C 224.433594 185.640625 236.578125 170.359375 227.976562 145.925781 " fill-opacity="1" fill-rule="nonzero"/></g></svg>