<svg xmlns="http://www.w3.org/2000/svg" xmlns:xlink="http://www.w3.org/1999/xlink" width="500" zoomAndPan="magnify" viewBox="0 0 375 374.999991" height="500" preserveAspectRatio="xMidYMid meet" version="1.0"><defs><filter x="0%" y="0%" width="100%" height="100%" id="45bc4cc321"><feColorMatrix values="0 0 0 0 1 0 0 0 0 1 0 0 0 0 1 0 0 0 1 0" color-interpolation-filters="sRGB"/></filter><mask id="e9aa8514ae"><g filter="url(#45bc4cc321)"><rect x="-37.5" width="450" fill="#000000" y="-37.499999" height="449.999989" fill-opacity="0.4"/></g></mask><clipPath id="df6a012399"><path d="M 0.347656 0.761719 L 123.121094 0.761719 L 123.121094 141.417969 L 0.347656 141.417969 Z M 0.347656 0.761719 " clip-rule="nonzero"/></clipPath><clipPath id="f3f547917c"><rect x="0" width="124" y="0" height="142"/></clipPath></defs><rect x="-37.5" width="450" fill="#ffffff" y="-37.499999" height="449.999989" fill-opacity="1"/><rect x="-37.5" width="450" fill="#ffffff" y="-37.499999" height="449.999989" fill-opacity="1"/><rect x="-37.5" width="450" fill="#ffffff" y="-37.499999" height="449.999989" fill-opacity="1"/><g mask="url(#e9aa8514ae)"><g transform="matrix(1, 0, 0, 1, 108, 113)"><g clip-path="url(#f3f547917c)"><path fill="#212529" d="M 30.507812 10.738281 C 31.113281 12.425781 31.464844 14.199219 31.554688 16.054688 C 31.695312 19.054688 31.09375 21.449219 30.785156 22.445312 C 29.394531 23.542969 28.105469 24.621094 26.917969 25.679688 C 26.40625 21.746094 24.308594 15.183594 16.257812 11.3125 C 16.257812 11.3125 21.492188 9.769531 30.507812 10.738281 " fill-opacity="1" fill-rule="nonzero"/><g clip-path="url(#df6a012399)"><path fill="#212529" d="M 119.976562 32.925781 C 105.371094 -8.589844 54.933594 11.445312 54.933594 11.445312 C 38.339844 0.800781 26.160156 0.960938 26.160156 0.960938 C 37.660156 11.078125 32.597656 23.738281 32.597656 23.738281 C 9.917969 41.328125 21.96875 48.101562 21.96875 48.101562 C 21.96875 48.101562 18.417969 44.105469 33.421875 37.457031 C 33.421875 37.457031 32.378906 40.355469 30.148438 43.652344 C 27.375 47.75 23.628906 48.453125 21.046875 49.566406 C 18.757812 53.035156 12.128906 62.125 0.367188 71 C 0.367188 71 12.804688 78.410156 20.773438 73.007812 C 62.683594 44.59375 70.542969 62.09375 51.953125 74.253906 C 17.589844 96.730469 30.675781 141.410156 30.675781 141.410156 C 38.089844 97.824219 80.429688 89.644531 80.429688 89.644531 C 84.300781 97.394531 78.390625 109.769531 78.390625 109.769531 C 92.253906 99.117188 98.054688 79.097656 98.054688 79.097656 C 102.570312 85.878906 100.207031 101.054688 100.207031 101.054688 C 118.042969 74.363281 109.984375 46.808594 109.984375 46.808594 C 119.117188 61.664062 116.433594 72.640625 116.433594 72.640625 C 116.433594 72.640625 128.578125 57.359375 119.976562 32.925781 " fill-opacity="1" fill-rule="nonzero"/></g></g></g></g></svg>