<svg xmlns="http://www.w3.org/2000/svg" xmlns:xlink="http://www.w3.org/1999/xlink" width="500" zoomAndPan="magnify" viewBox="0 0 375 374.999991" height="500" preserveAspectRatio="xMidYMid meet" version="1.0"><defs><clipPath id="28c574a416"><path d="M 112.5 129.816406 L 262.5 129.816406 L 262.5 187 L 112.5 187 Z M 112.5 129.816406 " clip-rule="nonzero"/></clipPath><clipPath id="6913436f73"><path d="M 112.5 155 L 262.5 155 L 262.5 245.316406 L 112.5 245.316406 Z M 112.5 155 " clip-rule="nonzero"/></clipPath></defs><rect x="-37.5" width="450" fill="#ffffff" y="-37.499999" height="449.999989" fill-opacity="1"/><rect x="-37.5" width="450" fill="#ffffff" y="-37.499999" height="449.999989" fill-opacity="1"/><rect x="-37.5" width="450" fill="#ffffff" y="-37.499999" height="449.999989" fill-opacity="1"/><g clip-path="url(#28c574a416)"><path fill="#000000" d="M 187.5 186.609375 L 262.484375 141.566406 L 262.484375 141.367188 C 262.484375 140.609375 262.410156 139.859375 262.261719 139.113281 C 262.113281 138.371094 261.894531 137.648438 261.605469 136.949219 C 261.316406 136.246094 260.960938 135.582031 260.539062 134.953125 C 260.117188 134.320312 259.640625 133.738281 259.105469 133.199219 C 258.570312 132.664062 257.988281 132.1875 257.355469 131.765625 C 256.726562 131.34375 256.0625 130.988281 255.363281 130.699219 C 254.664062 130.40625 253.941406 130.1875 253.199219 130.039062 C 252.457031 129.890625 251.707031 129.816406 250.949219 129.816406 L 124.050781 129.816406 C 123.292969 129.816406 122.542969 129.890625 121.800781 130.039062 C 121.058594 130.1875 120.335938 130.40625 119.636719 130.699219 C 118.9375 130.988281 118.273438 131.34375 117.644531 131.765625 C 117.011719 132.1875 116.429688 132.664062 115.894531 133.199219 C 115.359375 133.738281 114.882812 134.320312 114.460938 134.953125 C 114.039062 135.582031 113.683594 136.246094 113.394531 136.949219 C 113.105469 137.648438 112.886719 138.371094 112.738281 139.113281 C 112.589844 139.859375 112.515625 140.609375 112.515625 141.367188 L 112.515625 141.566406 Z M 187.5 186.609375 " fill-opacity="1" fill-rule="nonzero"/></g><g clip-path="url(#6913436f73)"><path fill="#000000" d="M 190.46875 198.292969 C 190.023438 198.5625 189.546875 198.765625 189.042969 198.90625 C 188.535156 199.046875 188.023438 199.117188 187.5 199.117188 C 186.976562 199.117188 186.464844 199.046875 185.957031 198.90625 C 185.453125 198.765625 184.976562 198.5625 184.53125 198.292969 L 112.515625 155.03125 L 112.515625 233.769531 C 112.515625 234.527344 112.589844 235.277344 112.738281 236.019531 C 112.886719 236.765625 113.105469 237.488281 113.394531 238.1875 C 113.683594 238.890625 114.039062 239.554688 114.460938 240.183594 C 114.882812 240.816406 115.359375 241.398438 115.894531 241.933594 C 116.429688 242.472656 117.011719 242.949219 117.644531 243.371094 C 118.273438 243.792969 118.9375 244.148438 119.636719 244.4375 C 120.335938 244.730469 121.058594 244.949219 121.800781 245.097656 C 122.542969 245.246094 123.292969 245.316406 124.050781 245.316406 L 250.949219 245.316406 C 251.707031 245.316406 252.457031 245.246094 253.199219 245.097656 C 253.941406 244.949219 254.664062 244.730469 255.363281 244.4375 C 256.0625 244.148438 256.726562 243.792969 257.355469 243.371094 C 257.988281 242.949219 258.570312 242.472656 259.105469 241.933594 C 259.640625 241.398438 260.117188 240.816406 260.539062 240.183594 C 260.960938 239.554688 261.316406 238.890625 261.605469 238.1875 C 261.894531 237.488281 262.113281 236.765625 262.261719 236.019531 C 262.410156 235.277344 262.484375 234.527344 262.484375 233.769531 L 262.484375 155.03125 Z M 190.46875 198.292969 " fill-opacity="1" fill-rule="nonzero"/></g></svg>