<svg xmlns="http://www.w3.org/2000/svg" xmlns:xlink="http://www.w3.org/1999/xlink" width="500" zoomAndPan="magnify" viewBox="0 0 375 374.999991" height="500" preserveAspectRatio="xMidYMid meet" version="1.0"><defs><clipPath id="1c2fce5d42"><path d="M 132.375 112.5 L 242.625 112.5 L 242.625 262.5 L 132.375 262.5 Z M 132.375 112.5 " clip-rule="nonzero"/></clipPath><clipPath id="4be8d3f91f"><path d="M 204.074219 100 L 281.324219 100 L 281.324219 176.195312 L 204.074219 176.195312 Z M 204.074219 100 " clip-rule="nonzero"/></clipPath></defs><rect x="-37.5" width="450" fill="#ffffff" y="-37.499999" height="449.999989" fill-opacity="1"/><rect x="-37.5" width="450" fill="#ffffff" y="-37.499999" height="449.999989" fill-opacity="1"/><rect x="-37.5" width="450" fill="#ffffff" y="-37.499999" height="449.999989" fill-opacity="1"/><path fill="#000000" d="M 187.03125 158.4375 C 187.5 157.96875 187.5 157.265625 187.03125 156.796875 C 186.5625 156.328125 185.859375 156.328125 185.390625 156.796875 L 165.703125 176.601562 L 167.34375 178.242188 Z M 187.03125 158.4375 " fill-opacity="1" fill-rule="nonzero"/><path fill="#000000" d="M 153.984375 183.28125 C 155.15625 184.453125 156.679688 185.039062 158.085938 185.039062 C 159.609375 185.039062 161.132812 184.453125 162.1875 183.28125 L 162.304688 183.164062 L 160.664062 181.523438 L 160.546875 181.640625 C 159.140625 183.046875 156.914062 183.046875 155.625 181.640625 L 147.1875 173.203125 C 146.71875 172.734375 146.015625 172.734375 145.546875 173.203125 C 145.078125 173.671875 145.078125 174.375 145.546875 174.84375 Z M 153.984375 183.28125 " fill-opacity="1" fill-rule="nonzero"/><g clip-path="url(#1c2fce5d42)"><path fill="#000000" d="M 132.421875 118.359375 L 132.421875 256.640625 C 132.421875 259.921875 135 262.5 138.28125 262.5 L 236.71875 262.5 C 240 262.5 242.578125 259.921875 242.578125 256.640625 L 242.578125 118.359375 C 242.578125 115.078125 240 112.5 236.71875 112.5 L 138.28125 112.5 C 135 112.5 132.421875 115.078125 132.421875 118.359375 Z M 240.234375 118.359375 L 240.234375 256.640625 C 240.234375 258.632812 238.710938 260.15625 236.71875 260.15625 L 138.28125 260.15625 C 136.289062 260.15625 134.765625 258.632812 134.765625 256.640625 L 134.765625 118.359375 C 134.765625 116.367188 136.289062 114.84375 138.28125 114.84375 L 236.71875 114.84375 C 238.710938 114.84375 240.234375 116.367188 240.234375 118.359375 Z M 240.234375 118.359375 " fill-opacity="1" fill-rule="nonzero"/></g><path fill="#000000" d="M 145.3125 209.765625 C 145.3125 210.46875 145.78125 210.9375 146.484375 210.9375 L 228.515625 210.9375 C 229.21875 210.9375 229.6875 210.46875 229.6875 209.765625 C 229.6875 209.0625 229.21875 208.59375 228.515625 208.59375 L 146.484375 208.59375 C 145.78125 208.59375 145.3125 209.0625 145.3125 209.765625 Z M 145.3125 209.765625 " fill-opacity="1" fill-rule="nonzero"/><path fill="#000000" d="M 228.515625 220.3125 L 146.484375 220.3125 C 145.78125 220.3125 145.3125 220.78125 145.3125 221.484375 C 145.3125 222.1875 145.78125 222.65625 146.484375 222.65625 L 228.515625 222.65625 C 229.21875 222.65625 229.6875 222.1875 229.6875 221.484375 C 229.6875 220.78125 229.21875 220.3125 228.515625 220.3125 Z M 228.515625 220.3125 " fill-opacity="1" fill-rule="nonzero"/><path fill="#000000" d="M 228.515625 232.03125 L 146.484375 232.03125 C 145.78125 232.03125 145.3125 232.5 145.3125 233.203125 C 145.3125 233.90625 145.78125 234.375 146.484375 234.375 L 228.515625 234.375 C 229.21875 234.375 229.6875 233.90625 229.6875 233.203125 C 229.6875 232.5 229.21875 232.03125 228.515625 232.03125 Z M 228.515625 232.03125 " fill-opacity="1" fill-rule="nonzero"/><path fill="#000000" d="M 228.515625 243.75 L 146.484375 243.75 C 145.78125 243.75 145.3125 244.21875 145.3125 244.921875 C 145.3125 245.625 145.78125 246.09375 146.484375 246.09375 L 228.515625 246.09375 C 229.21875 246.09375 229.6875 245.625 229.6875 244.921875 C 229.6875 244.21875 229.21875 243.75 228.515625 243.75 Z M 228.515625 243.75 " fill-opacity="1" fill-rule="nonzero"/><path fill="#000000" d="M 168.75 183.046875 L 160.429688 174.609375 C 159.960938 174.140625 159.257812 174.140625 158.789062 174.609375 C 158.320312 175.078125 158.320312 175.78125 158.789062 176.25 L 167.226562 184.6875 C 168.398438 185.859375 169.921875 186.445312 171.328125 186.445312 C 172.851562 186.445312 174.375 185.859375 175.429688 184.6875 L 200.273438 159.84375 C 200.742188 159.375 200.742188 158.671875 200.273438 158.203125 C 199.804688 157.734375 199.101562 157.734375 198.632812 158.203125 L 173.789062 183.046875 C 172.382812 184.335938 170.15625 184.335938 168.75 183.046875 Z M 168.75 183.046875 " fill-opacity="1" fill-rule="nonzero"/><path fill="#000000" d="M 144.609375 149.765625 C 144.84375 149.765625 145.078125 149.765625 145.3125 149.765625 C 145.546875 149.765625 145.78125 149.765625 146.015625 149.765625 L 148.007812 143.320312 L 158.203125 143.320312 L 160.3125 149.765625 C 160.429688 149.765625 160.664062 149.765625 160.898438 149.765625 C 161.132812 149.765625 161.367188 149.765625 161.601562 149.765625 C 161.835938 149.765625 162.070312 149.765625 162.304688 149.765625 C 162.539062 149.765625 162.773438 149.765625 162.890625 149.765625 L 154.570312 124.6875 C 154.453125 124.6875 154.21875 124.6875 153.867188 124.6875 C 153.632812 124.6875 153.28125 124.6875 153.046875 124.6875 C 152.8125 124.6875 152.578125 124.6875 152.226562 124.6875 C 151.992188 124.6875 151.757812 124.6875 151.523438 124.6875 L 143.203125 149.765625 C 143.320312 149.765625 143.554688 149.765625 143.789062 149.765625 C 144.140625 149.765625 144.375 149.765625 144.609375 149.765625 Z M 153.046875 127.148438 L 157.5 141.09375 L 148.59375 141.09375 Z M 153.046875 127.148438 " fill-opacity="1" fill-rule="nonzero"/><path fill="#000000" d="M 181.640625 138.632812 L 181.640625 145.078125 C 181.875 145.078125 181.992188 145.195312 182.226562 145.195312 C 182.460938 145.195312 182.578125 145.195312 182.8125 145.195312 C 183.046875 145.195312 183.164062 145.195312 183.398438 145.195312 C 183.632812 145.195312 183.75 145.195312 183.984375 145.078125 L 183.984375 138.632812 L 189.960938 138.632812 C 189.960938 138.398438 189.960938 138.28125 189.960938 138.046875 C 189.960938 137.8125 189.960938 137.695312 189.960938 137.460938 C 189.960938 137.226562 189.960938 137.109375 189.960938 136.875 C 189.960938 136.640625 189.960938 136.523438 189.960938 136.289062 L 183.984375 136.289062 L 183.984375 129.84375 C 183.75 129.84375 183.632812 129.84375 183.398438 129.84375 C 183.164062 129.84375 183.046875 129.84375 182.8125 129.84375 C 182.578125 129.84375 182.460938 129.84375 182.226562 129.84375 C 181.992188 129.84375 181.875 129.84375 181.640625 129.84375 L 181.640625 136.289062 L 175.664062 136.289062 C 175.664062 136.523438 175.546875 136.640625 175.546875 136.875 C 175.546875 137.109375 175.546875 137.226562 175.546875 137.460938 C 175.546875 137.695312 175.546875 137.8125 175.546875 138.046875 C 175.546875 138.28125 175.546875 138.398438 175.664062 138.632812 Z M 181.640625 138.632812 " fill-opacity="1" fill-rule="nonzero"/><path fill="#000000" d="M 253.480469 120.632812 C 251.433594 120.273438 249.46875 121.671875 249.144531 123.707031 C 249.023438 124.347656 249.105469 124.984375 249.304688 125.582031 L 240.753906 132.6875 C 240.390625 132.449219 239.949219 132.328125 239.507812 132.25 C 238.785156 132.128906 238.144531 132.207031 237.5 132.449219 L 233.808594 128.296875 C 234.007812 127.9375 234.128906 127.578125 234.207031 127.140625 C 234.207031 126.941406 234.207031 126.742188 234.207031 126.542969 C 234.207031 124.746094 232.921875 123.148438 231.078125 122.867188 C 229.027344 122.511719 227.0625 123.90625 226.738281 125.941406 C 226.621094 126.699219 226.699219 127.460938 227.019531 128.136719 L 219.996094 135.082031 C 219.714844 134.921875 219.351562 134.84375 219.03125 134.804688 C 218.027344 134.644531 217.023438 134.84375 216.21875 135.441406 C 215.417969 136.039062 214.855469 136.878906 214.695312 137.875 C 214.371094 139.914062 215.738281 141.867188 217.785156 142.226562 C 217.988281 142.265625 218.1875 142.265625 218.429688 142.265625 C 220.234375 142.265625 221.839844 140.988281 222.164062 139.152344 C 222.28125 138.394531 222.203125 137.636719 221.882812 136.957031 L 228.867188 129.933594 C 229.148438 130.09375 229.46875 130.171875 229.832031 130.214844 C 230.074219 130.253906 230.273438 130.253906 230.472656 130.253906 C 230.957031 130.253906 231.398438 130.171875 231.839844 129.972656 L 235.535156 134.125 C 235.332031 134.484375 235.210938 134.84375 235.132812 135.28125 C 234.972656 136.28125 235.171875 137.277344 235.773438 138.078125 C 236.378906 138.875 237.21875 139.433594 238.222656 139.59375 C 238.464844 139.632812 238.664062 139.632812 238.867188 139.632812 C 239.628906 139.632812 240.390625 139.394531 241.035156 138.953125 C 241.835938 138.355469 242.398438 137.515625 242.5625 136.519531 C 242.601562 136.28125 242.601562 136.082031 242.601562 135.882812 C 242.601562 135.441406 242.519531 135.042969 242.359375 134.644531 L 250.914062 127.539062 C 251.273438 127.777344 251.714844 127.898438 252.15625 127.976562 C 252.398438 128.019531 252.597656 128.019531 252.800781 128.019531 C 253.5625 128.019531 254.324219 127.777344 254.96875 127.300781 C 255.769531 126.699219 256.332031 125.863281 256.492188 124.863281 C 256.535156 124.664062 256.535156 124.425781 256.535156 124.226562 C 256.574219 122.550781 255.289062 120.953125 253.480469 120.632812 Z M 219.554688 138.675781 C 219.433594 139.3125 218.828125 139.710938 218.226562 139.632812 C 217.585938 139.511719 217.144531 138.914062 217.265625 138.277344 C 217.304688 137.957031 217.503906 137.675781 217.746094 137.515625 C 217.945312 137.398438 218.1875 137.316406 218.429688 137.316406 C 218.507812 137.316406 218.550781 137.316406 218.628906 137.316406 C 218.910156 137.359375 219.191406 137.558594 219.351562 137.796875 C 219.554688 138.035156 219.59375 138.355469 219.554688 138.675781 Z M 230.273438 127.699219 C 229.992188 127.660156 229.710938 127.460938 229.511719 127.21875 C 229.351562 126.980469 229.269531 126.660156 229.308594 126.339844 C 229.429688 125.78125 229.914062 125.382812 230.472656 125.382812 C 230.554688 125.382812 230.59375 125.382812 230.675781 125.382812 C 231.316406 125.503906 231.71875 126.101562 231.640625 126.742188 C 231.597656 127.058594 231.398438 127.300781 231.15625 127.5 C 230.875 127.660156 230.554688 127.738281 230.273438 127.699219 Z M 239.027344 134.804688 C 239.667969 134.921875 240.070312 135.523438 239.992188 136.160156 C 239.949219 136.480469 239.75 136.757812 239.507812 136.917969 C 239.269531 137.117188 238.945312 137.160156 238.664062 137.117188 C 238.382812 137.078125 238.105469 136.878906 237.902344 136.640625 C 237.742188 136.398438 237.660156 136.082031 237.703125 135.761719 C 237.824219 135.203125 238.304688 134.804688 238.867188 134.804688 C 238.90625 134.761719 238.988281 134.804688 239.027344 134.804688 Z M 251.675781 124.144531 C 251.753906 123.585938 252.277344 123.1875 252.839844 123.1875 C 252.921875 123.1875 252.960938 123.1875 253.039062 123.1875 C 253.683594 123.308594 254.085938 123.90625 254.003906 124.546875 C 253.964844 124.824219 253.761719 125.105469 253.523438 125.304688 C 253.28125 125.503906 252.960938 125.542969 252.679688 125.503906 C 252.359375 125.464844 252.117188 125.304688 251.917969 125.023438 C 251.675781 124.746094 251.636719 124.464844 251.675781 124.144531 Z M 251.675781 124.144531 " fill-opacity="1" fill-rule="nonzero"/><path fill="#000000" d="M 253.601562 112.171875 C 243.203125 101.835938 226.296875 101.835938 215.9375 112.171875 C 205.539062 122.511719 205.539062 139.3125 215.9375 149.613281 C 220.957031 154.601562 227.664062 157.355469 234.769531 157.355469 C 241.878906 157.355469 248.582031 154.601562 253.601562 149.609375 C 258.621094 144.621094 261.390625 137.957031 261.390625 130.890625 C 261.390625 123.785156 258.621094 117.160156 253.601562 112.171875 Z M 251.753906 147.773438 C 247.21875 152.285156 241.195312 154.761719 234.769531 154.761719 C 228.347656 154.761719 222.324219 152.285156 217.785156 147.773438 C 208.429688 138.476562 208.429688 123.308594 217.785156 113.96875 C 227.140625 104.667969 242.398438 104.667969 251.796875 113.96875 C 256.332031 118.480469 258.824219 124.464844 258.824219 130.851562 C 258.78125 137.277344 256.292969 143.265625 251.753906 147.773438 Z M 251.753906 147.773438 " fill-opacity="1" fill-rule="nonzero"/><g clip-path="url(#4be8d3f91f)"><path fill="#000000" d="M 280.265625 166.855469 L 267.535156 154.242188 C 266.53125 153.285156 264.847656 153.285156 263.84375 154.242188 L 262.277344 155.796875 L 257.617188 151.167969 C 268.339844 139.195312 267.976562 120.792969 256.453125 109.339844 C 244.488281 97.445312 225.011719 97.445312 213.046875 109.339844 C 207.265625 115.085938 204.09375 122.75 204.09375 130.890625 C 204.09375 139.035156 207.265625 146.699219 213.089844 152.445312 C 219.070312 158.390625 226.941406 161.347656 234.769531 161.347656 C 242.359375 161.347656 249.949219 158.550781 255.851562 153.003906 L 260.46875 157.59375 L 258.902344 159.152344 C 258.421875 159.628906 258.140625 160.308594 258.140625 160.988281 C 258.140625 161.664062 258.421875 162.34375 258.902344 162.824219 L 271.589844 175.4375 C 272.074219 175.914062 272.757812 176.195312 273.4375 176.195312 C 274.121094 176.195312 274.804688 175.914062 275.285156 175.4375 L 280.304688 170.445312 C 281.308594 169.488281 281.308594 167.851562 280.265625 166.855469 Z M 214.933594 150.609375 C 209.636719 145.339844 206.703125 138.355469 206.703125 130.890625 C 206.703125 123.429688 209.636719 116.402344 214.933594 111.132812 C 220.394531 105.707031 227.582031 102.992188 234.769531 102.992188 C 241.957031 102.992188 249.144531 105.707031 254.605469 111.132812 C 265.570312 122.03125 265.570312 139.710938 254.605469 150.609375 C 243.683594 161.503906 225.855469 161.503906 214.933594 150.609375 Z M 273.4375 173.640625 L 260.710938 161.027344 L 265.730469 156.039062 L 278.457031 168.691406 Z M 273.4375 173.640625 " fill-opacity="1" fill-rule="nonzero"/></g></svg>