<svg xmlns="http://www.w3.org/2000/svg" xmlns:xlink="http://www.w3.org/1999/xlink" width="500" zoomAndPan="magnify" viewBox="0 0 375 374.999991" height="500" preserveAspectRatio="xMidYMid meet" version="1.0"><defs><clipPath id="3ba37aeb43"><path d="M 112.5 145 L 262.5 145 L 262.5 262.5 L 112.5 262.5 Z M 112.5 145 " clip-rule="nonzero"/></clipPath><clipPath id="e3e19e32c0"><path d="M 168 112.5 L 207 112.5 L 207 150 L 168 150 Z M 168 112.5 " clip-rule="nonzero"/></clipPath></defs><rect x="-37.5" width="450" fill="#ffffff" y="-37.499999" height="449.999989" fill-opacity="1"/><rect x="-37.5" width="450" fill="#ffffff" y="-37.499999" height="449.999989" fill-opacity="1"/><rect x="-37.5" width="450" fill="#ffffff" y="-37.499999" height="449.999989" fill-opacity="1"/><g clip-path="url(#3ba37aeb43)"><path fill="#000000" d="M 257.8125 195.703125 L 255.46875 195.703125 L 255.46875 183.984375 C 255.46875 181.40625 253.359375 179.296875 250.78125 179.296875 L 249.84375 179.296875 L 251.835938 169.21875 C 252.070312 167.929688 251.25 166.757812 249.960938 166.40625 C 248.671875 166.171875 247.5 166.992188 247.148438 168.28125 L 244.921875 179.296875 L 244.101562 179.296875 L 242.34375 170.625 C 242.109375 169.335938 240.820312 168.515625 239.53125 168.75 C 238.242188 168.984375 237.421875 170.273438 237.65625 171.5625 L 239.179688 179.296875 L 239.0625 179.296875 C 236.484375 179.296875 234.375 181.40625 234.375 183.984375 L 234.375 195.703125 L 222.65625 195.703125 L 222.65625 164.0625 C 222.65625 154.453125 215.390625 146.601562 206.132812 145.429688 C 204.84375 147.1875 203.320312 148.710938 201.5625 150 L 203.085938 150 L 195.585938 165 L 193.359375 153.867188 C 191.835938 154.21875 190.3125 154.453125 188.671875 154.570312 L 192.070312 171.914062 L 187.5 181.054688 L 182.929688 171.914062 L 186.328125 154.570312 C 184.6875 154.453125 183.164062 154.21875 181.640625 153.867188 L 179.53125 165 L 171.914062 150 L 173.4375 150 C 171.679688 148.710938 170.15625 147.1875 168.867188 145.429688 C 159.609375 146.601562 152.34375 154.453125 152.34375 164.0625 L 152.34375 195.703125 L 145.3125 195.703125 L 145.3125 191.015625 C 145.3125 190.195312 145.078125 189.375 144.609375 188.671875 C 144.960938 187.96875 145.3125 187.148438 145.3125 186.328125 L 145.3125 181.640625 C 145.3125 180.820312 145.078125 180 144.609375 179.296875 C 144.960938 178.59375 145.3125 177.773438 145.3125 176.953125 L 145.3125 172.265625 C 145.3125 169.6875 143.203125 167.578125 140.625 167.578125 L 124.21875 167.578125 C 120.351562 167.578125 117.1875 170.742188 117.1875 174.609375 C 117.1875 176.367188 117.890625 178.007812 118.945312 179.296875 C 117.773438 180.585938 117.1875 182.226562 117.1875 183.984375 C 117.1875 185.742188 117.890625 187.382812 118.945312 188.671875 C 117.773438 189.960938 117.1875 191.601562 117.1875 193.359375 C 117.1875 194.179688 117.304688 195 117.65625 195.703125 L 117.1875 195.703125 C 114.609375 195.703125 112.5 197.8125 112.5 200.390625 L 112.5 207.421875 C 112.5 210 114.609375 212.109375 117.1875 212.109375 L 125.390625 212.109375 L 125.390625 255.46875 C 125.390625 259.335938 128.554688 262.5 132.421875 262.5 L 242.578125 262.5 C 246.445312 262.5 249.609375 259.335938 249.609375 255.46875 L 249.609375 212.109375 L 257.8125 212.109375 C 260.390625 212.109375 262.5 210 262.5 207.421875 L 262.5 200.390625 C 262.5 197.8125 260.390625 195.703125 257.8125 195.703125 Z M 239.0625 183.984375 L 250.78125 183.984375 L 250.78125 195.703125 L 239.0625 195.703125 Z M 157.03125 164.0625 C 157.03125 157.734375 161.25 152.34375 166.992188 150.585938 L 185.390625 187.382812 C 185.742188 188.203125 186.5625 188.671875 187.5 188.671875 C 188.4375 188.671875 189.257812 188.203125 189.609375 187.382812 L 208.007812 150.585938 C 213.75 152.34375 217.96875 157.734375 217.96875 164.0625 L 217.96875 195.703125 L 157.03125 195.703125 Z M 124.21875 172.265625 L 140.625 172.265625 L 140.625 176.953125 L 124.21875 176.953125 C 122.929688 176.953125 121.875 175.898438 121.875 174.609375 C 121.875 173.320312 122.929688 172.265625 124.21875 172.265625 Z M 124.21875 181.640625 L 140.625 181.640625 L 140.625 186.328125 L 124.21875 186.328125 C 122.929688 186.328125 121.875 185.273438 121.875 183.984375 C 121.875 182.695312 122.929688 181.640625 124.21875 181.640625 Z M 124.21875 191.015625 L 140.625 191.015625 L 140.625 195.703125 L 124.21875 195.703125 C 122.929688 195.703125 121.875 194.648438 121.875 193.359375 C 121.875 192.070312 122.929688 191.015625 124.21875 191.015625 Z M 244.921875 255.46875 C 244.921875 256.757812 243.867188 257.8125 242.578125 257.8125 L 132.421875 257.8125 C 131.132812 257.8125 130.078125 256.757812 130.078125 255.46875 L 130.078125 212.109375 L 244.921875 212.109375 Z M 117.1875 207.421875 L 117.1875 200.390625 L 257.8125 200.390625 L 257.8125 207.421875 Z M 117.1875 207.421875 " fill-opacity="1" fill-rule="nonzero"/></g><g clip-path="url(#e3e19e32c0)"><path fill="#000000" d="M 168.75 131.25 C 168.75 141.5625 177.1875 150 187.5 150 C 197.8125 150 206.25 141.5625 206.25 131.25 C 206.25 120.9375 197.8125 112.5 187.5 112.5 C 177.1875 112.5 168.75 120.9375 168.75 131.25 Z M 201.5625 131.25 C 201.5625 138.984375 195.234375 145.3125 187.5 145.3125 C 179.765625 145.3125 173.4375 138.984375 173.4375 131.25 C 173.4375 123.515625 179.765625 117.1875 187.5 117.1875 C 195.234375 117.1875 201.5625 123.515625 201.5625 131.25 Z M 201.5625 131.25 " fill-opacity="1" fill-rule="nonzero"/></g><path fill="#000000" d="M 150 248.4375 L 225 248.4375 C 226.289062 248.4375 227.34375 247.382812 227.34375 246.09375 L 227.34375 223.828125 C 227.34375 222.539062 226.289062 221.484375 225 221.484375 L 150 221.484375 C 148.710938 221.484375 147.65625 222.539062 147.65625 223.828125 L 147.65625 246.09375 C 147.65625 247.382812 148.710938 248.4375 150 248.4375 Z M 152.34375 226.171875 L 222.65625 226.171875 L 222.65625 243.75 L 152.34375 243.75 Z M 152.34375 226.171875 " fill-opacity="1" fill-rule="nonzero"/><path fill="#000000" d="M 209.765625 175.78125 L 202.734375 175.78125 C 201.445312 175.78125 200.390625 176.835938 200.390625 178.125 C 200.390625 179.414062 201.445312 180.46875 202.734375 180.46875 L 209.765625 180.46875 C 211.054688 180.46875 212.109375 179.414062 212.109375 178.125 C 212.109375 176.835938 211.054688 175.78125 209.765625 175.78125 Z M 209.765625 175.78125 " fill-opacity="1" fill-rule="nonzero"/></svg>