<svg xmlns="http://www.w3.org/2000/svg" xmlns:xlink="http://www.w3.org/1999/xlink" width="500" zoomAndPan="magnify" viewBox="0 0 375 374.999991" height="500" preserveAspectRatio="xMidYMid meet" version="1.0"><defs><clipPath id="49a940654f"><path d="M 132 205 L 288.296875 205 L 288.296875 307.316406 L 132 307.316406 Z M 132 205 " clip-rule="nonzero"/></clipPath><clipPath id="de965d1023"><path d="M 86.546875 68 L 262 68 L 262 179 L 86.546875 179 Z M 86.546875 68 " clip-rule="nonzero"/></clipPath></defs><rect x="-37.5" width="450" fill="#ffffff" y="-37.499999" height="449.999989" fill-opacity="1"/><rect x="-37.5" width="450" fill="#ffffff" y="-37.499999" height="449.999989" fill-opacity="1"/><rect x="-37.5" width="450" fill="#ffffff" y="-37.499999" height="449.999989" fill-opacity="1"/><g clip-path="url(#49a940654f)"><path fill="#000000" d="M 288.296875 240.859375 C 288.296875 222.40625 264.6875 211.824219 246.925781 205.472656 L 244.308594 212.773438 C 268.6875 221.492188 280.535156 230.679688 280.535156 240.859375 C 280.535156 251.820312 267.507812 261.28125 239.546875 270.644531 C 223.824219 275.867188 204.960938 280.53125 186.722656 285.035156 C 168.171875 289.621094 148.988281 294.363281 132.84375 299.769531 L 135.304688 307.136719 C 151.152344 301.84375 170.183594 297.144531 188.585938 292.59375 C 206.988281 288.042969 225.980469 283.351562 242 278.027344 C 263.554688 270.785156 288.296875 260.039062 288.296875 240.859375 Z M 288.296875 240.859375 " fill-opacity="1" fill-rule="nonzero"/></g><path fill="#000000" d="M 228.203125 135.71875 L 235.886719 128.042969 L 241.371094 133.527344 L 233.691406 141.203125 Z M 228.203125 135.71875 " fill-opacity="1" fill-rule="nonzero"/><path fill="#000000" d="M 183.539062 109.585938 L 191.300781 109.585938 L 191.300781 120.441406 L 183.539062 120.441406 Z M 183.539062 109.585938 " fill-opacity="1" fill-rule="nonzero"/><path fill="#000000" d="M 154.796875 189.488281 C 154.5625 190.347656 154.507812 191.21875 154.636719 192.101562 C 154.761719 192.984375 155.054688 193.808594 155.519531 194.570312 L 160.175781 202.292969 C 160.40625 202.667969 160.667969 203.015625 160.960938 203.339844 C 161.257812 203.664062 161.578125 203.957031 161.929688 204.21875 C 162.28125 204.480469 162.65625 204.703125 163.050781 204.894531 C 163.445312 205.082031 163.855469 205.234375 164.277344 205.347656 C 164.703125 205.457031 165.132812 205.527344 165.570312 205.554688 C 166.007812 205.582031 166.445312 205.570312 166.878906 205.515625 C 167.3125 205.460938 167.738281 205.363281 168.15625 205.226562 C 168.570312 205.089844 168.96875 204.914062 169.351562 204.699219 L 170.570312 204.027344 C 172.257812 205.222656 174.054688 206.222656 175.957031 207.035156 L 175.957031 208.125 C 175.960938 208.5625 176.007812 209 176.101562 209.433594 C 176.191406 209.863281 176.324219 210.28125 176.496094 210.6875 C 176.667969 211.09375 176.878906 211.476562 177.128906 211.84375 C 177.378906 212.207031 177.660156 212.542969 177.976562 212.851562 C 178.289062 213.160156 178.632812 213.433594 179 213.675781 C 179.371094 213.917969 179.761719 214.121094 180.167969 214.285156 C 180.578125 214.453125 181 214.574219 181.433594 214.65625 C 181.867188 214.742188 182.304688 214.78125 182.746094 214.777344 L 192.078125 214.777344 C 192.519531 214.78125 192.957031 214.742188 193.390625 214.65625 C 193.824219 214.574219 194.242188 214.453125 194.652344 214.285156 C 195.0625 214.121094 195.453125 213.917969 195.820312 213.675781 C 196.191406 213.433594 196.53125 213.160156 196.847656 212.851562 C 197.160156 212.542969 197.445312 212.207031 197.691406 211.84375 C 197.941406 211.476562 198.152344 211.09375 198.324219 210.6875 C 198.5 210.28125 198.632812 209.863281 198.722656 209.433594 C 198.8125 209 198.859375 208.5625 198.867188 208.125 L 198.867188 207.035156 C 200.769531 206.222656 202.5625 205.21875 204.25 204.027344 L 205.472656 204.699219 C 205.855469 204.914062 206.253906 205.089844 206.671875 205.226562 C 207.085938 205.363281 207.511719 205.460938 207.945312 205.515625 C 208.382812 205.570312 208.816406 205.585938 209.253906 205.554688 C 209.691406 205.527344 210.121094 205.457031 210.546875 205.347656 C 210.96875 205.234375 211.378906 205.085938 211.773438 204.894531 C 212.167969 204.707031 212.542969 204.480469 212.890625 204.21875 C 213.242188 203.957031 213.566406 203.664062 213.863281 203.339844 C 214.15625 203.015625 214.417969 202.667969 214.644531 202.292969 L 219.300781 194.570312 C 219.765625 193.808594 220.0625 192.984375 220.1875 192.101562 C 220.3125 191.21875 220.257812 190.347656 220.027344 189.488281 C 219.789062 188.613281 219.386719 187.816406 218.824219 187.101562 C 218.265625 186.390625 217.585938 185.8125 216.789062 185.375 L 215.746094 184.800781 C 215.960938 182.902344 215.960938 181.003906 215.746094 179.105469 L 216.785156 178.53125 C 217.582031 178.09375 218.261719 177.519531 218.824219 176.804688 C 219.386719 176.09375 219.789062 175.296875 220.027344 174.421875 C 220.261719 173.558594 220.316406 172.6875 220.1875 171.804688 C 220.0625 170.921875 219.765625 170.097656 219.300781 169.335938 L 214.644531 161.609375 C 214.414062 161.238281 214.148438 160.894531 213.855469 160.574219 C 213.558594 160.253906 213.234375 159.964844 212.882812 159.707031 C 212.53125 159.445312 212.15625 159.222656 211.761719 159.035156 C 211.371094 158.847656 210.960938 158.699219 210.539062 158.585938 C 210.117188 158.476562 209.6875 158.40625 209.253906 158.378906 C 208.816406 158.347656 208.382812 158.359375 207.949219 158.414062 C 207.515625 158.464844 207.089844 158.558594 206.675781 158.691406 C 206.261719 158.824219 205.859375 158.996094 205.476562 159.207031 L 204.253906 159.878906 C 202.566406 158.683594 200.773438 157.683594 198.871094 156.875 L 198.871094 155.785156 C 198.867188 155.34375 198.816406 154.90625 198.726562 154.476562 C 198.636719 154.042969 198.503906 153.625 198.332031 153.21875 C 198.15625 152.8125 197.945312 152.429688 197.699219 152.0625 C 197.449219 151.699219 197.167969 151.363281 196.851562 151.054688 C 196.535156 150.746094 196.191406 150.46875 195.824219 150.226562 C 195.453125 149.984375 195.066406 149.78125 194.65625 149.617188 C 194.246094 149.453125 193.824219 149.328125 193.390625 149.246094 C 192.957031 149.164062 192.519531 149.125 192.078125 149.128906 L 182.765625 149.128906 C 182.324219 149.125 181.886719 149.164062 181.453125 149.246094 C 181.019531 149.328125 180.597656 149.453125 180.1875 149.617188 C 179.777344 149.785156 179.390625 149.988281 179.019531 150.230469 C 178.652344 150.472656 178.308594 150.746094 177.992188 151.054688 C 177.679688 151.363281 177.394531 151.699219 177.148438 152.066406 C 176.898438 152.429688 176.6875 152.816406 176.515625 153.21875 C 176.339844 153.625 176.210938 154.042969 176.117188 154.476562 C 176.027344 154.910156 175.980469 155.34375 175.976562 155.785156 L 175.976562 156.882812 C 174.074219 157.691406 172.277344 158.691406 170.589844 159.886719 L 169.371094 159.21875 C 168.988281 159.007812 168.589844 158.835938 168.171875 158.703125 C 167.757812 158.570312 167.332031 158.476562 166.898438 158.421875 C 166.464844 158.371094 166.03125 158.355469 165.59375 158.386719 C 165.15625 158.417969 164.730469 158.484375 164.304688 158.597656 C 163.882812 158.707031 163.476562 158.855469 163.082031 159.046875 C 162.6875 159.234375 162.3125 159.457031 161.960938 159.714844 C 161.609375 159.972656 161.285156 160.265625 160.988281 160.585938 C 160.691406 160.90625 160.425781 161.25 160.195312 161.621094 L 155.539062 169.34375 C 155.074219 170.105469 154.777344 170.929688 154.652344 171.8125 C 154.527344 172.695312 154.582031 173.566406 154.816406 174.429688 C 155.054688 175.304688 155.453125 176.097656 156.015625 176.808594 C 156.574219 177.523438 157.253906 178.097656 158.046875 178.535156 L 159.09375 179.113281 C 158.882812 181.011719 158.882812 182.910156 159.09375 184.808594 L 158.050781 185.382812 C 157.253906 185.816406 156.570312 186.390625 156.007812 187.105469 C 155.441406 187.816406 155.039062 188.609375 154.796875 189.488281 Z M 166.675781 181.953125 C 166.675781 181.074219 166.738281 180.195312 166.867188 179.320312 C 166.953125 178.660156 166.9375 178.003906 166.824219 177.347656 C 166.710938 176.691406 166.503906 176.066406 166.199219 175.472656 C 165.898438 174.878906 165.511719 174.34375 165.046875 173.867188 C 164.582031 173.386719 164.058594 172.992188 163.46875 172.671875 L 162.792969 172.285156 L 166.351562 166.394531 L 167.3125 166.917969 C 167.894531 167.230469 168.511719 167.460938 169.164062 167.601562 C 169.8125 167.742188 170.46875 167.789062 171.132812 167.742188 C 171.792969 167.691406 172.4375 167.554688 173.058594 167.324219 C 173.683594 167.09375 174.261719 166.78125 174.796875 166.386719 C 176.21875 165.351562 177.75 164.507812 179.390625 163.859375 C 180.019531 163.621094 180.601562 163.296875 181.136719 162.878906 C 181.667969 162.464844 182.128906 161.980469 182.515625 161.429688 C 182.902344 160.875 183.199219 160.277344 183.402344 159.632812 C 183.609375 158.992188 183.714844 158.332031 183.722656 157.660156 L 183.722656 156.882812 L 191.117188 156.882812 L 191.117188 157.660156 C 191.125 158.332031 191.230469 158.992188 191.4375 159.632812 C 191.644531 160.277344 191.941406 160.875 192.328125 161.429688 C 192.714844 161.980469 193.171875 162.464844 193.707031 162.878906 C 194.238281 163.296875 194.820312 163.621094 195.453125 163.859375 C 197.089844 164.519531 198.621094 165.367188 200.046875 166.414062 C 200.578125 166.808594 201.15625 167.121094 201.78125 167.351562 C 202.402344 167.582031 203.046875 167.722656 203.707031 167.769531 C 204.371094 167.816406 205.027344 167.769531 205.675781 167.628906 C 206.324219 167.492188 206.941406 167.261719 207.527344 166.949219 L 208.488281 166.421875 L 212.050781 172.3125 L 211.378906 172.679688 C 210.792969 173 210.265625 173.394531 209.796875 173.871094 C 209.332031 174.351562 208.945312 174.886719 208.644531 175.480469 C 208.339844 176.074219 208.128906 176.699219 208.015625 177.355469 C 207.902344 178.011719 207.890625 178.671875 207.976562 179.332031 C 208.230469 181.085938 208.230469 182.839844 207.976562 184.59375 C 207.890625 185.257812 207.902344 185.914062 208.015625 186.570312 C 208.128906 187.230469 208.335938 187.855469 208.640625 188.449219 C 208.945312 189.042969 209.328125 189.578125 209.796875 190.054688 C 210.261719 190.53125 210.789062 190.929688 211.375 191.246094 L 212.050781 191.617188 L 208.488281 197.507812 L 207.527344 196.980469 C 206.941406 196.667969 206.324219 196.441406 205.671875 196.300781 C 205.023438 196.164062 204.367188 196.117188 203.707031 196.164062 C 203.042969 196.214844 202.398438 196.351562 201.777344 196.582031 C 201.152344 196.8125 200.574219 197.125 200.042969 197.519531 C 198.621094 198.5625 197.089844 199.414062 195.453125 200.066406 C 194.820312 200.308594 194.238281 200.632812 193.707031 201.050781 C 193.175781 201.464844 192.714844 201.949219 192.328125 202.5 C 191.941406 203.054688 191.644531 203.652344 191.4375 204.292969 C 191.234375 204.9375 191.125 205.597656 191.117188 206.269531 L 191.117188 207.046875 L 183.722656 207.046875 L 183.722656 206.269531 C 183.714844 205.597656 183.609375 204.9375 183.402344 204.292969 C 183.195312 203.652344 182.898438 203.054688 182.511719 202.5 C 182.125 201.949219 181.667969 201.464844 181.136719 201.050781 C 180.601562 200.632812 180.019531 200.308594 179.390625 200.066406 C 177.75 199.410156 176.21875 198.5625 174.796875 197.515625 C 174.261719 197.121094 173.683594 196.808594 173.058594 196.582031 C 172.4375 196.351562 171.792969 196.210938 171.132812 196.164062 C 170.46875 196.117188 169.8125 196.164062 169.164062 196.300781 C 168.515625 196.441406 167.898438 196.667969 167.3125 196.980469 L 166.351562 197.507812 L 162.792969 191.617188 L 163.46875 191.246094 C 164.054688 190.929688 164.578125 190.53125 165.046875 190.054688 C 165.511719 189.578125 165.898438 189.042969 166.199219 188.449219 C 166.503906 187.855469 166.710938 187.230469 166.824219 186.570312 C 166.9375 185.914062 166.953125 185.257812 166.867188 184.59375 C 166.738281 183.71875 166.675781 182.839844 166.675781 181.953125 Z M 166.675781 181.953125 " fill-opacity="1" fill-rule="nonzero"/><path fill="#000000" d="M 187.421875 194.875 C 188.269531 194.875 189.113281 194.792969 189.945312 194.628906 C 190.777344 194.464844 191.585938 194.21875 192.371094 193.894531 C 193.15625 193.570312 193.902344 193.171875 194.609375 192.699219 C 195.316406 192.226562 195.96875 191.691406 196.570312 191.09375 C 197.171875 190.492188 197.707031 189.839844 198.179688 189.132812 C 198.652344 188.429688 199.050781 187.683594 199.375 186.898438 C 199.699219 186.113281 199.945312 185.304688 200.109375 184.472656 C 200.277344 183.640625 200.359375 182.800781 200.359375 181.953125 C 200.359375 181.101562 200.277344 180.261719 200.113281 179.429688 C 199.945312 178.597656 199.699219 177.789062 199.375 177.003906 C 199.050781 176.222656 198.652344 175.476562 198.179688 174.769531 C 197.707031 174.0625 197.171875 173.410156 196.570312 172.8125 C 195.96875 172.210938 195.316406 171.675781 194.609375 171.203125 C 193.90625 170.730469 193.160156 170.332031 192.375 170.007812 C 191.589844 169.683594 190.78125 169.4375 189.945312 169.273438 C 189.113281 169.109375 188.273438 169.023438 187.421875 169.023438 C 186.574219 169.023438 185.734375 169.109375 184.898438 169.273438 C 184.066406 169.441406 183.257812 169.683594 182.472656 170.011719 C 181.6875 170.335938 180.941406 170.734375 180.234375 171.203125 C 179.53125 171.675781 178.875 172.210938 178.277344 172.8125 C 177.675781 173.414062 177.140625 174.066406 176.667969 174.773438 C 176.195312 175.476562 175.796875 176.222656 175.472656 177.007812 C 175.148438 177.792969 174.902344 178.601562 174.738281 179.433594 C 174.570312 180.265625 174.488281 181.105469 174.488281 181.953125 C 174.492188 182.804688 174.574219 183.644531 174.742188 184.472656 C 174.90625 185.304688 175.152344 186.113281 175.476562 186.898438 C 175.804688 187.679688 176.203125 188.425781 176.671875 189.128906 C 177.144531 189.835938 177.679688 190.488281 178.28125 191.085938 C 178.882812 191.6875 179.535156 192.222656 180.238281 192.695312 C 180.945312 193.164062 181.691406 193.5625 182.472656 193.886719 C 183.257812 194.214844 184.066406 194.460938 184.898438 194.625 C 185.730469 194.792969 186.570312 194.875 187.421875 194.875 Z M 187.421875 176.78125 C 187.761719 176.78125 188.097656 176.816406 188.429688 176.882812 C 188.765625 176.949219 189.085938 177.046875 189.402344 177.175781 C 189.714844 177.304688 190.015625 177.464844 190.296875 177.652344 C 190.578125 177.839844 190.839844 178.054688 191.082031 178.296875 C 191.324219 178.535156 191.539062 178.796875 191.726562 179.078125 C 191.914062 179.359375 192.074219 179.660156 192.207031 179.972656 C 192.335938 180.285156 192.433594 180.609375 192.5 180.941406 C 192.566406 181.277344 192.601562 181.613281 192.601562 181.953125 C 192.601562 182.292969 192.566406 182.628906 192.5 182.960938 C 192.433594 183.292969 192.335938 183.617188 192.207031 183.933594 C 192.078125 184.246094 191.917969 184.542969 191.730469 184.828125 C 191.539062 185.109375 191.324219 185.371094 191.085938 185.609375 C 190.84375 185.851562 190.585938 186.066406 190.300781 186.253906 C 190.019531 186.441406 189.722656 186.601562 189.40625 186.730469 C 189.09375 186.863281 188.769531 186.960938 188.4375 187.027344 C 188.101562 187.09375 187.765625 187.125 187.425781 187.125 C 187.085938 187.125 186.75 187.09375 186.417969 187.027344 C 186.082031 186.960938 185.757812 186.863281 185.445312 186.734375 C 185.128906 186.601562 184.832031 186.445312 184.550781 186.253906 C 184.265625 186.066406 184.003906 185.851562 183.765625 185.613281 C 183.523438 185.371094 183.308594 185.109375 183.121094 184.828125 C 182.933594 184.546875 182.773438 184.246094 182.644531 183.933594 C 182.511719 183.621094 182.414062 183.296875 182.347656 182.964844 C 182.28125 182.628906 182.25 182.292969 182.25 181.953125 C 182.25 181.617188 182.28125 181.277344 182.347656 180.945312 C 182.414062 180.613281 182.511719 180.289062 182.644531 179.976562 C 182.773438 179.664062 182.933594 179.367188 183.121094 179.082031 C 183.308594 178.800781 183.523438 178.539062 183.765625 178.300781 C 184.003906 178.058594 184.265625 177.847656 184.546875 177.65625 C 184.832031 177.46875 185.128906 177.308594 185.441406 177.179688 C 185.753906 177.046875 186.078125 176.949219 186.410156 176.882812 C 186.746094 176.816406 187.082031 176.785156 187.421875 176.78125 Z M 187.421875 176.78125 " fill-opacity="1" fill-rule="nonzero"/><path fill="#000000" d="M 161.8125 230.058594 L 161.8125 250.703125 C 161.8125 251.542969 161.855469 252.378906 161.9375 253.210938 C 162.019531 254.046875 162.140625 254.875 162.304688 255.695312 C 162.46875 256.515625 162.671875 257.328125 162.917969 258.128906 C 163.160156 258.933594 163.441406 259.722656 163.761719 260.496094 C 164.085938 261.269531 164.441406 262.027344 164.835938 262.765625 C 165.234375 263.503906 165.664062 264.222656 166.128906 264.917969 C 166.59375 265.617188 167.09375 266.289062 167.625 266.9375 C 168.160156 267.582031 168.722656 268.203125 169.3125 268.796875 C 169.90625 269.390625 170.527344 269.949219 171.175781 270.484375 C 171.824219 271.015625 172.496094 271.511719 173.195312 271.976562 C 173.890625 272.445312 174.609375 272.875 175.351562 273.269531 C 176.089844 273.664062 176.847656 274.023438 177.621094 274.34375 C 178.394531 274.664062 179.183594 274.945312 179.988281 275.1875 C 180.789062 275.433594 181.601562 275.636719 182.425781 275.796875 C 183.246094 275.960938 184.078125 276.085938 184.910156 276.167969 C 185.746094 276.25 186.582031 276.289062 187.421875 276.289062 C 188.257812 276.289062 189.097656 276.25 189.929688 276.167969 C 190.765625 276.085938 191.59375 275.960938 192.417969 275.796875 C 193.238281 275.636719 194.050781 275.433594 194.855469 275.1875 C 195.65625 274.945312 196.445312 274.664062 197.21875 274.34375 C 197.996094 274.023438 198.753906 273.664062 199.492188 273.269531 C 200.230469 272.875 200.949219 272.445312 201.648438 271.976562 C 202.34375 271.511719 203.015625 271.015625 203.664062 270.484375 C 204.3125 269.949219 204.933594 269.390625 205.527344 268.796875 C 206.121094 268.203125 206.683594 267.582031 207.214844 266.9375 C 207.746094 266.289062 208.246094 265.617188 208.710938 264.917969 C 209.179688 264.222656 209.609375 263.503906 210.003906 262.765625 C 210.398438 262.027344 210.757812 261.269531 211.078125 260.496094 C 211.398438 259.722656 211.679688 258.933594 211.925781 258.128906 C 212.167969 257.328125 212.371094 256.515625 212.535156 255.695312 C 212.699219 254.875 212.820312 254.046875 212.902344 253.210938 C 212.988281 252.378906 213.027344 251.542969 213.027344 250.703125 L 213.027344 230.054688 C 215.199219 228.894531 217.28125 227.59375 219.277344 226.152344 C 221.269531 224.714844 223.160156 223.144531 224.945312 221.449219 C 226.726562 219.757812 228.390625 217.949219 229.929688 216.03125 C 231.46875 214.113281 232.875 212.101562 234.144531 209.992188 C 235.414062 207.886719 236.535156 205.703125 237.511719 203.445312 C 238.484375 201.1875 239.304688 198.871094 239.96875 196.503906 C 240.632812 194.136719 241.132812 191.734375 241.472656 189.296875 C 241.8125 186.863281 241.988281 184.414062 241.996094 181.953125 C 241.996094 180.113281 241.90625 178.277344 241.71875 176.445312 C 241.53125 174.613281 241.253906 172.796875 240.882812 170.992188 C 240.511719 169.191406 240.050781 167.410156 239.5 165.652344 C 238.949219 163.894531 238.3125 162.171875 237.585938 160.480469 C 236.863281 158.785156 236.050781 157.136719 235.160156 155.523438 C 234.265625 153.914062 233.292969 152.355469 232.242188 150.839844 C 231.191406 149.328125 230.066406 147.875 228.867188 146.476562 C 227.671875 145.078125 226.402344 143.742188 225.070312 142.472656 C 223.738281 141.203125 222.34375 140.003906 220.886719 138.875 C 219.429688 137.746094 217.921875 136.695312 216.359375 135.71875 C 214.796875 134.742188 213.191406 133.847656 211.539062 133.03125 C 209.886719 132.21875 208.195312 131.492188 206.46875 130.847656 C 204.742188 130.207031 202.988281 129.652344 201.207031 129.1875 C 199.421875 128.722656 197.621094 128.347656 195.800781 128.066406 C 193.980469 127.78125 192.148438 127.59375 190.308594 127.496094 C 188.46875 127.398438 186.628906 127.390625 184.789062 127.480469 C 183.308594 127.550781 181.835938 127.683594 180.367188 127.871094 C 178.898438 128.0625 177.4375 128.3125 175.992188 128.621094 C 174.542969 128.929688 173.109375 129.300781 171.6875 129.726562 C 170.269531 130.152344 168.871094 130.632812 167.492188 131.175781 C 166.113281 131.714844 164.757812 132.308594 163.425781 132.960938 C 162.097656 133.609375 160.792969 134.3125 159.519531 135.070312 C 158.246094 135.824219 157.007812 136.632812 155.800781 137.488281 C 154.589844 138.347656 153.421875 139.25 152.285156 140.203125 C 151.152344 141.15625 150.058594 142.152344 149.007812 143.195312 C 147.953125 144.238281 146.945312 145.320312 145.980469 146.445312 C 145.019531 147.566406 144.101562 148.730469 143.230469 149.925781 C 142.363281 151.125 141.542969 152.355469 140.773438 153.621094 C 140.003906 154.886719 139.289062 156.179688 138.625 157.503906 C 137.960938 158.828125 137.351562 160.175781 136.796875 161.550781 C 136.246094 162.921875 135.746094 164.316406 135.308594 165.730469 C 134.867188 167.144531 134.484375 168.570312 134.160156 170.015625 C 133.839844 171.460938 133.574219 172.914062 133.371094 174.382812 C 133.164062 175.847656 133.019531 177.320312 132.933594 178.796875 C 132.851562 180.277344 132.824219 181.753906 132.859375 183.234375 C 132.898438 184.714844 132.992188 186.191406 133.148438 187.660156 C 133.304688 189.132812 133.519531 190.597656 133.796875 192.050781 C 134.070312 193.507812 134.40625 194.945312 134.796875 196.375 C 135.191406 197.800781 135.640625 199.210938 136.148438 200.601562 C 136.65625 201.992188 137.21875 203.359375 137.839844 204.703125 C 138.460938 206.046875 139.132812 207.367188 139.859375 208.65625 C 140.585938 209.945312 141.363281 211.203125 142.191406 212.429688 C 143.023438 213.65625 143.898438 214.847656 144.828125 216.003906 C 145.753906 217.160156 146.726562 218.273438 147.742188 219.351562 C 148.757812 220.425781 149.820312 221.457031 150.921875 222.449219 C 152.023438 223.4375 153.164062 224.382812 154.339844 225.277344 C 155.519531 226.175781 156.730469 227.023438 157.980469 227.820312 C 159.226562 228.617188 160.503906 229.363281 161.8125 230.058594 Z M 187.421875 268.535156 C 186.515625 268.535156 185.617188 268.464844 184.726562 268.324219 C 183.832031 268.1875 182.957031 267.980469 182.09375 267.707031 C 181.234375 267.4375 180.398438 267.101562 179.585938 266.703125 C 178.777344 266.304688 178 265.84375 177.257812 265.328125 C 176.515625 264.8125 175.820312 264.242188 175.164062 263.621094 C 174.511719 262.996094 173.90625 262.328125 173.355469 261.617188 C 172.800781 260.902344 172.304688 260.148438 171.867188 259.359375 C 171.429688 258.570312 171.050781 257.753906 170.738281 256.90625 L 204.105469 256.90625 C 203.789062 257.753906 203.414062 258.570312 202.972656 259.359375 C 202.535156 260.148438 202.039062 260.902344 201.488281 261.617188 C 200.933594 262.328125 200.332031 262.996094 199.675781 263.621094 C 199.023438 264.242188 198.324219 264.8125 197.582031 265.328125 C 196.84375 265.84375 196.066406 266.304688 195.253906 266.703125 C 194.445312 267.101562 193.609375 267.4375 192.746094 267.707031 C 191.886719 267.980469 191.007812 268.1875 190.117188 268.324219 C 189.222656 268.464844 188.324219 268.535156 187.421875 268.535156 Z M 205.269531 249.152344 L 169.574219 249.152344 L 169.574219 240.109375 L 205.269531 240.109375 Z M 140.796875 177.652344 C 140.925781 176.261719 141.117188 174.882812 141.371094 173.511719 C 141.625 172.140625 141.9375 170.78125 142.3125 169.4375 C 142.6875 168.09375 143.121094 166.773438 143.617188 165.46875 C 144.109375 164.164062 144.660156 162.882812 145.265625 161.625 C 145.875 160.371094 146.535156 159.144531 147.253906 157.949219 C 147.96875 156.75 148.738281 155.589844 149.558594 154.460938 C 150.378906 153.332031 151.25 152.246094 152.167969 151.195312 C 153.085938 150.144531 154.050781 149.136719 155.058594 148.171875 C 156.066406 147.207031 157.117188 146.289062 158.207031 145.421875 C 159.296875 144.550781 160.421875 143.730469 161.585938 142.957031 C 162.75 142.1875 163.945312 141.472656 165.171875 140.808594 C 166.402344 140.144531 167.65625 139.539062 168.9375 138.988281 C 170.21875 138.433594 171.523438 137.941406 172.847656 137.507812 C 174.175781 137.070312 175.519531 136.695312 176.878906 136.382812 C 178.238281 136.066406 179.609375 135.8125 180.992188 135.621094 C 182.371094 135.425781 183.761719 135.296875 185.15625 135.226562 C 185.929688 135.1875 186.679688 135.171875 187.4375 135.171875 C 188.96875 135.171875 190.5 135.25 192.023438 135.398438 C 193.550781 135.550781 195.066406 135.773438 196.566406 136.074219 C 198.070312 136.371094 199.558594 136.746094 201.023438 137.191406 C 202.492188 137.632812 203.933594 138.152344 205.347656 138.738281 C 206.765625 139.324219 208.148438 139.976562 209.5 140.699219 C 210.851562 141.421875 212.164062 142.210938 213.441406 143.0625 C 214.714844 143.914062 215.945312 144.824219 217.128906 145.796875 C 218.3125 146.769531 219.449219 147.796875 220.53125 148.878906 C 221.617188 149.960938 222.644531 151.097656 223.617188 152.28125 C 224.589844 153.464844 225.5 154.695312 226.351562 155.96875 C 227.203125 157.242188 227.992188 158.554688 228.714844 159.90625 C 229.4375 161.257812 230.089844 162.640625 230.675781 164.054688 C 231.261719 165.46875 231.78125 166.910156 232.222656 168.375 C 232.667969 169.84375 233.039062 171.328125 233.339844 172.828125 C 233.640625 174.332031 233.863281 175.84375 234.011719 177.371094 C 234.164062 178.894531 234.238281 180.421875 234.238281 181.953125 C 234.230469 184.152344 234.066406 186.339844 233.75 188.519531 C 233.433594 190.695312 232.964844 192.835938 232.347656 194.949219 C 231.730469 197.058594 230.964844 199.117188 230.058594 201.121094 C 229.152344 203.125 228.109375 205.054688 226.933594 206.910156 C 225.753906 208.769531 224.453125 210.535156 223.027344 212.210938 C 221.601562 213.886719 220.0625 215.453125 218.417969 216.914062 C 216.773438 218.371094 215.03125 219.710938 213.199219 220.925781 C 211.363281 222.140625 209.453125 223.222656 207.46875 224.167969 C 206.792969 224.492188 206.257812 224.964844 205.859375 225.59375 C 205.460938 226.226562 205.257812 226.914062 205.257812 227.660156 L 205.257812 232.34375 L 169.574219 232.34375 L 169.574219 227.671875 C 169.570312 226.925781 169.371094 226.238281 168.972656 225.605469 C 168.574219 224.976562 168.035156 224.503906 167.363281 224.179688 C 165.203125 223.167969 163.132812 222 161.152344 220.667969 C 159.171875 219.339844 157.308594 217.867188 155.554688 216.25 C 153.800781 214.632812 152.183594 212.894531 150.699219 211.027344 C 149.214844 209.164062 147.878906 207.195312 146.699219 205.125 C 145.515625 203.054688 144.5 200.90625 143.648438 198.679688 C 142.796875 196.453125 142.121094 194.175781 141.621094 191.84375 C 141.121094 189.511719 140.800781 187.160156 140.664062 184.777344 C 140.523438 182.398438 140.570312 180.023438 140.796875 177.652344 Z M 140.796875 177.652344 " fill-opacity="1" fill-rule="nonzero"/><path fill="#000000" d="M 133.464844 133.519531 L 138.949219 128.039062 L 146.632812 135.714844 L 141.144531 141.195312 Z M 133.464844 133.519531 " fill-opacity="1" fill-rule="nonzero"/><g clip-path="url(#de965d1023)"><path fill="#000000" d="M 258.21875 73.757812 L 236.28125 68.222656 C 235.605469 68.054688 234.933594 68.066406 234.261719 68.261719 C 233.589844 68.453125 233.015625 68.804688 232.535156 69.308594 C 232.050781 69.8125 231.730469 70.40625 231.566406 71.085938 C 231.40625 71.761719 231.425781 72.4375 231.628906 73.105469 L 233.886719 80.582031 C 219.40625 85.078125 202.847656 89.175781 186.742188 93.160156 C 168.183594 97.746094 149 102.488281 132.855469 107.890625 C 111.289062 115.050781 86.546875 125.746094 86.546875 144.921875 C 86.546875 162.636719 107.902344 172.78125 123.96875 178.871094 L 126.71875 171.613281 C 104.910156 163.351562 94.304688 154.617188 94.304688 144.921875 C 94.304688 134.128906 107.714844 124.414062 135.304688 115.230469 C 151.15625 109.9375 170.191406 105.230469 188.585938 100.667969 C 204.765625 96.667969 221.425781 92.527344 236.105469 87.992188 L 238.332031 95.355469 C 238.53125 96.027344 238.890625 96.597656 239.402344 97.074219 C 239.914062 97.550781 240.507812 97.867188 241.191406 98.019531 C 241.472656 98.082031 241.757812 98.113281 242.042969 98.113281 C 242.589844 98.113281 243.113281 98.003906 243.613281 97.78125 C 244.113281 97.558594 244.546875 97.246094 244.914062 96.84375 L 260.140625 80.121094 C 260.363281 79.871094 260.554688 79.597656 260.710938 79.300781 C 260.863281 79.003906 260.976562 78.691406 261.050781 78.363281 C 261.125 78.039062 261.15625 77.707031 261.140625 77.371094 C 261.128906 77.035156 261.074219 76.710938 260.976562 76.386719 C 260.878906 76.066406 260.742188 75.765625 260.566406 75.480469 C 260.390625 75.195312 260.179688 74.9375 259.9375 74.707031 C 259.691406 74.476562 259.425781 74.277344 259.128906 74.117188 C 258.835938 73.957031 258.527344 73.835938 258.199219 73.753906 Z M 243.789062 86.574219 L 241.023438 77.40625 L 250.046875 79.6875 Z M 243.789062 86.574219 " fill-opacity="1" fill-rule="nonzero"/></g></svg>